<?xml version="1.0" encoding="UTF-8"?>
<!DOCTYPE svg PUBLIC "-//W3C//DTD SVG 1.1//EN" "http://www.w3.org/Graphics/SVG/1.1/DTD/svg11.dtd">
<!-- Creator: CorelDRAW 2020 (64-Bit) -->
<svg xmlns="http://www.w3.org/2000/svg" xml:space="preserve" width="80.9091mm" height="31.8308mm" version="1.1" style="shape-rendering:geometricPrecision; text-rendering:geometricPrecision; image-rendering:optimizeQuality; fill-rule:evenodd; clip-rule:evenodd"
viewBox="0 0 8758.51 3445.72"
 xmlns:xlink="http://www.w3.org/1999/xlink"
 xmlns:xodm="http://www.corel.com/coreldraw/odm/2003">
 <defs>
  <style type="text/css">
   <![CDATA[
    .str0 {stroke:#CD0001;stroke-width:183.3;stroke-miterlimit:22.9256}
    .fil3 {fill:#003399}
    .fil0 {fill:#990117}
    .fil2 {fill:#CD0001}
    .fil1 {fill:#FEFEFE}
    .fil6 {fill:#003399;fill-rule:nonzero}
    .fil4 {fill:white;fill-rule:nonzero}
    .fil5 {fill:white;fill-rule:nonzero}
   ]]>
  </style>
 </defs>
 <g id="Слой_x0020_1">
  <metadata id="CorelCorpID_0Corel-Layer"/>
  <g id="_1701233265872">
   <g>
    <path class="fil0" d="M6283.23 923.63c-169.59,-48.14 -345.82,-89.35 -520.64,-137.32 -87.33,-23.95 -188.74,-48.55 -268.4,-106.71 -208.91,-152.55 -101.54,-321.73 108.54,-291.87 101.37,14.42 167.83,53.29 255.38,114.89 157.6,110.89 295.95,226.68 439.93,342.47l-14.81 78.54zm694.93 9.48l-814.54 0c-224.11,-27.8 -667.38,-65.58 -727.29,-100.05 -22.23,-19.07 -229.99,-49.57 -285.09,-277.22 -33.69,-139.15 9.8,-299.22 137.51,-388.43 105.46,-73.65 259.73,-101.62 377.95,-6.85 96.04,77 158.52,135.92 242.03,218.21 25.43,25.06 48.94,61.56 84.77,79.17 47.5,22.83 259.15,288.87 323.39,352.26 80.24,-26.76 12.76,-23.58 131.73,-21.46 55.42,0.99 85.27,-5.32 146.04,24.74l281.2 -288.35c5.2,8.02 -22.79,5.34 11.43,8.31l342.83 -303.55c65.61,-51.61 114.26,-70.34 196.74,-73.94 80.21,-3.49 171.22,22.82 244.03,95.57 56.14,56.11 91.94,119.48 103.74,196.95 28.26,185.63 -57.61,341.76 -220.24,406.34 -108.61,43.13 -34.11,10.88 -104.42,22.99 -14.84,2.55 -38.7,8.9 -51.81,11.15 -25.92,4.45 -33.2,0.48 -57.57,17.48 -45.47,6.95 -205.82,16.85 -362.45,26.64zm-362.48 -87.09c35.97,-38.86 174.64,-132.14 220.53,-162.08 133.81,-87.28 301.76,-226.58 452.61,-246.69 279.07,-37.23 340.81,194.09 78.76,318.57 -83.47,39.65 -157.97,52.7 -242.56,71.74l-498.16 99.91c-2.13,-36.58 -0.06,-48.1 -11.18,-81.44z"/>
    <path class="fil1" d="M6283.22 923.63l14.81 -78.54c-143.97,-115.8 -282.31,-231.58 -439.93,-342.47 -87.53,-61.59 -153.99,-100.47 -255.36,-114.89 -210.08,-29.87 -317.46,139.32 -108.54,291.87 79.66,58.16 181.07,82.77 268.39,106.71 174.84,47.97 351.07,89.19 520.64,137.32z"/>
    <path class="fil1" d="M6615.68 846.03c11.12,33.33 9.05,44.86 11.18,81.44l498.16 -99.91c84.59,-19.04 159.09,-32.07 242.56,-71.73 262.04,-124.49 200.31,-355.81 -78.76,-318.59 -150.86,20.12 -318.8,159.42 -452.61,246.72 -45.89,29.93 -184.55,123.21 -220.53,162.07z"/>
    <path class="fil2" d="M6875.88 525.15c5.2,8.02 -22.79,5.34 11.42,8.31l342.84 -303.55c65.61,-51.61 114.26,-70.34 196.74,-73.94 80.21,-3.5 171.22,22.82 244.03,95.57 56.14,56.11 91.94,119.48 103.74,196.95 28.26,185.63 -57.61,341.76 -220.24,406.34 -108.61,43.13 -34.11,10.88 -104.42,22.99 -14.84,2.55 -38.7,8.9 -51.81,11.15 -25.93,4.45 -33.2,0.48 -57.57,17.48 55.19,4.23 206.46,-20.56 258.54,-31.32 75.73,-15.63 157.02,-59.27 221.42,-139.97 217.13,-272.07 29.37,-670.2 -292.18,-678.13 -98.66,-2.44 -156.68,31.46 -236.3,92.63 -148.73,114.26 -274.6,237.11 -416.2,375.46z"/>
    <path class="fil2" d="M5436.34 833.07c-22.23,-19.07 -229.99,-49.57 -285.1,-277.22 -33.68,-139.14 9.81,-299.22 137.52,-388.43 105.46,-73.65 259.73,-101.62 377.95,-6.85 96.04,76.99 158.52,135.92 242.03,218.21 25.42,25.06 48.95,61.56 84.77,79.17 -3.79,-11.47 -0.52,-4.63 -8.25,-16.91l-31.84 -36.1c-225.24,-237.65 -480.3,-552.73 -780.99,-327.73 -290.63,217.47 -183.4,713.99 233.95,757.7l29.95 -1.85z"/>
   </g>
   <path class="fil2" d="M6273.6 931.34l1838.78 0 0 2513.56 -3057.74 0 0 -1294.6c0,-670.43 548.53,-1218.96 1218.96,-1218.96z"/>
   <g>
    <path class="fil3" d="M7916.29 431.41c465.14,0 842.22,377.07 842.22,842.22 0,465.14 -377.07,842.21 -842.22,842.21 -465.13,0 -842.21,-377.06 -842.21,-842.21 0,-465.14 377.07,-842.22 842.21,-842.22z"/>
    <path class="fil4" d="M7439.31 1008.09l177.72 0 -33.28 209.79c-3.95,27.79 -7.21,50.94 -9.61,69.64 -2.23,18.53 -3.42,30.71 -3.42,36.37 0,24.01 5.82,42.54 17.32,55.23 11.5,12.7 28.47,19.04 50.43,19.04 51.62,0 86.45,-58.31 104.64,-175.14 1.03,-6.34 1.88,-11.32 2.4,-14.58l31.73 -200.35 178.4 0 -36.19 229.34 -1.55 10.64c-17.67,108.92 -45.28,181.66 -82.86,218.19 -23.66,22.65 -52.83,39.79 -87.13,51.46 -34.32,11.5 -73.08,17.32 -116.31,17.32 -74.62,0 -133.45,-16.97 -176.51,-50.77 -43.05,-33.8 -64.5,-79.76 -64.5,-137.74 0,-13.38 1.2,-30.19 3.43,-50.43 2.4,-20.24 7.04,-51.46 14.06,-93.66l31.22 -194.35zm498.66 507.41l305.68 -380.81 -208.94 0 19.56 -126.6 489.9 0 -293.49 363.31 232.77 0 -22.65 144.09 -522.84 0z"/>
   </g>
   <path class="fil5 str0" d="M5683.64 2049.27l59.01 0c202.72,0 339.85,-21.34 411.44,-64 71.59,-42.66 107.09,-115.42 107.09,-217.7 0,-86.44 -30.6,-149.88 -91.8,-189.82 -61.75,-39.93 -157.91,-60.18 -289.03,-60.18l-112.02 0 -84.7 531.7zm-834.44 1304.79l374.92 -2335.36 643.66 0c178.13,0 312.54,7.1 402.14,21.88 89.61,14.22 167.75,38.29 233.87,72.76 119.66,60.72 209.26,144.41 268.28,249.98 59.55,106.12 89.07,232.48 89.07,380.17 0,146.05 -31.7,282.25 -95.63,406.98 -63.38,125.26 -149.71,221.54 -258.44,288.81 -63.92,39.39 -139.88,67.28 -227.85,84.24 -87.42,16.41 -224.57,24.62 -411.44,24.62l-96.17 0 -166.64 0 -133.42 805.92 -622.35 0z"/>
   <path class="fil4" d="M5640.04 3260.63l77.55 -489.09 165.68 0 -12.07 83.17c15.05,-31.09 35.38,-54.57 61.01,-70.77 25.46,-16.21 55.23,-24.3 89.12,-24.3 3.47,0 7.6,0.16 12.07,0.66 4.46,0.5 11.57,1.66 21.33,3.3l-34.39 153.61c-11.24,-2.64 -21.49,-4.46 -30.59,-5.78 -8.92,-1.33 -17.69,-1.99 -26.12,-1.99 -33.23,0 -59.53,10.42 -78.7,31.25 -19.18,20.84 -32.41,53.08 -39.52,96.56l-34.89 223.39 -170.47 0zm688.09 -635.1c0,-25.3 8.93,-46.96 26.95,-64.98 17.86,-18.01 39.51,-27.12 65.15,-27.12 26.78,0 48.94,8.77 66.8,26.13 17.69,17.53 26.62,39.35 26.62,65.97 0,26.13 -9.09,48.28 -27.12,66.3 -18.02,18.02 -40.18,27.12 -66.3,27.12 -25.63,0 -47.28,-9.09 -65.15,-27.44 -18.02,-18.19 -26.95,-40.18 -26.95,-65.98zm-90.28 635.1l77.23 -489.09 173.78 0 -77.39 489.09 -173.61 0zm421.23 0l294.65 -367.07 -201.39 0 18.85 -122.02 472.23 0 -282.9 350.2 224.37 0 -21.82 138.89 -503.99 0zm1146.61 -302.58c-1.66,-26.46 -10.41,-47.46 -26.62,-63 -16.21,-15.53 -37.53,-23.31 -63.99,-23.31 -23.98,0 -45.31,7.6 -64.16,22.82 -19.01,15.21 -33.23,36.37 -42.99,63.49l197.75 0zm-209.33 99.21l0 11.07c0,31.09 7.93,54.73 23.8,70.76 15.71,16.21 38.86,24.31 69.28,24.31 21.33,0 41.34,-4.47 60.35,-13.4 18.85,-8.92 39.19,-23.31 60.69,-43.15l93.42 94.24c-27.78,26.46 -59.85,46.3 -96.24,59.53 -36.37,13.23 -77.05,19.84 -121.86,19.84 -79.86,0 -141.86,-21.16 -186.02,-63.66 -44.14,-42.49 -66.13,-102.02 -66.13,-178.57 0,-83.67 26.28,-151.79 78.7,-204.04 52.42,-52.4 120.38,-78.54 203.71,-78.54 75.57,0 136.24,23.15 182.38,69.28 45.96,46.3 68.95,107.47 68.95,183.86 0,6.78 -0.99,19.02 -2.8,36.87 -0.67,5.46 -1.16,9.27 -1.49,11.58l-366.73 0z"/>
   <path class="fil6" d="M291.1 2501.25c88.21,94.58 172.02,163.19 251.9,206.32 79.88,42.64 162.7,64.2 247.98,64.2 70.57,0 126.92,-17.16 169.07,-51.46 42.15,-34.79 63.22,-79.88 63.22,-136.24 0,-76.45 -84.78,-159.27 -254.83,-247.97 -16.66,-8.82 -29.4,-15.69 -38.71,-20.09 -166.14,-86.25 -279.35,-169.08 -340.61,-248.47 -61.26,-79.39 -92.13,-176.43 -92.13,-290.12 0,-207.8 70.08,-377.85 210.25,-510.17 140.16,-131.84 321,-197.99 542.02,-197.99 116.64,0 228.86,20.58 336.68,61.75 107.32,41.17 209.26,102.43 304.82,182.79l-240.63 414.11c-75.47,-64.69 -144.57,-112.71 -206.8,-144.08 -62.24,-31.36 -119.59,-47.05 -172.02,-47.05 -57.34,0 -105.36,16.66 -143.6,49.5 -38.22,32.83 -57.33,73.02 -57.33,121.05 0,59.3 71.54,125.46 215.14,198.97 50.48,25.98 89.69,47.05 117.61,63.22 147.51,81.36 249.94,164.18 307.28,248.97 57.34,84.78 86.25,190.63 86.25,318.05 0,224.95 -77.93,404.81 -234.26,539.08 -155.85,134.77 -368.05,201.91 -636.12,201.91 -140.65,0 -271.99,-29.89 -394.51,-89.68 -122.52,-59.8 -233.28,-148.99 -331.78,-266.6l291.1 -419.99zm1659.88 -726.3l507.72 0 -95.08 599.37c-11.27,79.39 -20.58,145.55 -27.44,198.98 -6.37,52.92 -9.8,87.72 -9.8,103.89 0,68.61 16.66,121.54 49.49,157.81 32.83,36.26 81.35,54.4 144.08,54.4 147.51,0 247,-166.63 298.95,-500.37 2.94,-18.13 5.39,-32.35 6.86,-41.66l90.66 -572.41 509.68 0 -103.4 655.23 -4.42 30.39c-50.48,311.2 -129.38,518.99 -236.7,623.38 -67.64,64.69 -150.95,113.7 -248.96,147.03 -98.02,32.83 -208.77,49.49 -332.28,49.49 -213.18,0 -381.27,-48.52 -504.29,-145.07 -123.01,-96.54 -184.27,-227.88 -184.27,-393.53 0,-38.22 3.43,-86.25 9.81,-144.08 6.85,-57.83 20.09,-147.02 40.18,-267.58l89.19 -555.26zm1592.26 1449.65l229.85 -1449.65 491.05 0 -35.78 246.51c44.6,-92.13 104.88,-161.73 180.84,-209.75 75.47,-48.03 163.69,-72.04 264.14,-72.04 10.29,0 22.55,0.49 35.78,1.96 13.24,1.47 34.3,4.9 63.22,9.8l-101.93 455.28c-33.33,-7.84 -63.72,-13.23 -90.67,-17.15 -26.46,-3.93 -52.44,-5.89 -77.43,-5.89 -98.5,0 -176.42,30.87 -233.27,92.63 -56.85,61.75 -96.05,157.31 -117.13,286.21l-103.4 662.09 -505.27 0z"/>
  </g>
 </g>
</svg>
