<?xml version="1.0" encoding="UTF-8"?>
<!DOCTYPE svg PUBLIC "-//W3C//DTD SVG 1.1//EN" "http://www.w3.org/Graphics/SVG/1.1/DTD/svg11.dtd">
<!-- Creator: CorelDRAW 2020 (64-Bit) -->
<svg xmlns="http://www.w3.org/2000/svg" xml:space="preserve" width="63.3944mm" height="23.679mm" version="1.1" style="shape-rendering:geometricPrecision; text-rendering:geometricPrecision; image-rendering:optimizeQuality; fill-rule:evenodd; clip-rule:evenodd"
viewBox="0 0 6339.44 2367.9"
 xmlns:xlink="http://www.w3.org/1999/xlink"
 xmlns:xodm="http://www.corel.com/coreldraw/odm/2003">
 <defs>
  <style type="text/css">
   <![CDATA[
    .fil0 {fill:white}
    .fil1 {fill:white;fill-rule:nonzero}
   ]]>
  </style>
 </defs>
 <g id="Слой_x0020_1">
  <metadata id="CorelCorpID_0Corel-Layer"/>
  <g id="_1701232114032">
   <path class="fil0" d="M5659.35 2129.28c10.5,8.59 57.92,51.72 62.87,58.43 -45.19,39.18 -77.89,56.89 -153.01,56.89 -254.99,0 -224.03,-363.57 25.96,-363.57 113.64,0 192.01,88.29 171.67,210.64l-256.02 3.86c4.16,119.75 137.97,37.99 148.53,33.75zm-993.81 107.61l-121.98 1.36 54.89 -338.71 17.05 -4.41c1.94,-0.28 3.76,-0.61 5.97,-0.85l97.41 -0.27 -53.34 342.88zm394.56 -96.21l154.93 0 -13.75 92.64c-28.04,10.28 -317.65,9.13 -356.31,1.97 10.74,-8.87 198.7,-236.21 206.09,-250.34l-139.9 0 12.5 -87.31c28.78,-7.3 297.98,-6.96 331.18,-0.82l-96.24 118.85c-33.19,41.38 -69.97,81.08 -98.5,125.01zm-664.88 -151.26c-136.6,-24.2 -119.78,80.81 -146.93,245.47l-120.17 3.59 54.52 -342.03 115.53 -2.75 -5.08 48.01c5.03,-12.48 30.12,-37.1 44.92,-45.6 22.31,-12.82 50.02,-17.89 78.24,-11.05l-21.03 104.36zm258.24 -260.14c84.5,-27.73 114.59,97.3 41.78,121.87 -86.21,29.1 -116.77,-97.26 -41.78,-121.87zm-763.83 -1014.99c192.24,-3.27 520.75,-15.61 698.46,19.06 191.77,37.42 324.14,168.8 337.58,381.64 14.67,232.32 -89.07,409.1 -228.91,490.94 -172.95,101.21 -542.72,37.96 -649.13,65.03l-93.13 567.25 -310.44 -0.08 245.57 -1523.84zm1991.17 695.9c-289.04,48.3 -462.27,-46.31 -593.7,-194.87 -108.26,-122.39 -162.86,-299.57 -136.15,-474.22 9.89,-64.72 28.35,-100.92 43.41,-157.59 -123.89,-4.08 -269.93,3.38 -397.61,3.63 -67.02,0.12 -134.25,-0.61 -201.24,-0.01 -67.92,0.6 -131.78,-4.7 -194.74,-3.84l-623.16 -0.49c-32.61,140.03 -115.92,723.31 -143.71,888.4 -24.74,147.01 -47.65,296.63 -72.41,446.9 -11.74,71.25 -23.39,153.26 -35.13,224.52 -6.63,40.25 -12.41,70.59 -18.65,111.18 -5.57,36.33 -15.71,81.29 -15.71,114.1l2388.8 0 0 -957.71z"/>
   <path class="fil0" d="M5770.49 641.18c-34.05,189.02 -18.82,362.51 -220.6,369.93 -90.73,3.33 -168.71,-32.83 -180.05,-111.52 -7.57,-52.54 23.73,-196.23 32.95,-257.8l127.52 -0.61c-8.61,53.21 -17.44,105.31 -25.08,157.05 -6.83,46.23 -20.65,127.73 49.26,114.48 70.31,-13.32 71.86,-194.68 89.72,-265.89l126.28 -5.64zm70.09 -0.14l342.54 2.95c-10.41,9.56 -36.8,45.85 -49.91,61.44l-151.7 188.91 161.09 0.07 -15.09 104.02 -367.28 -2.95 210.98 -263.23 -143.95 -0.15 13.32 -91.06zm-190.13 -405.07c-18.98,15.34 -68.81,18.5 -95.86,27.1 -33.57,10.65 -59.53,26.39 -90.93,35.91 -13.87,12 -67.88,43.37 -125.26,91.82 -50.96,43.03 -82.79,97.79 -100.95,111.14 -5.09,18.57 -30.86,67.92 -43.09,81.57 -15.06,56.67 -33.52,92.87 -43.41,157.59 -26.71,174.65 27.89,351.83 136.15,474.22 131.43,148.56 304.66,243.17 593.7,194.87 139.91,-40.95 247.84,-100.37 335.78,-218.97 229.24,-309.25 131.28,-737.14 -240.5,-911.42 -56.34,-26.42 -154.67,-51.3 -238.09,-46.58l-87.54 2.75z"/>
   <path class="fil0" d="M4583.1 581.85c-141.71,-37.87 -461.87,-98.55 -571.01,-181.75 -36.37,-27.74 -103.17,-105.91 -47.51,-162.69 157.61,-160.8 494.31,197.7 630.43,287.39l-11.91 57.05zm-509.8 -41.57c54.63,9.58 311.64,32.21 327.47,43.01 62.96,-0.86 126.82,4.44 194.74,3.84 66.99,-0.6 134.22,0.13 201.24,0.01 127.68,-0.25 273.72,-7.71 397.61,-3.63 12.23,-13.65 38,-63 43.09,-81.57 -67.3,12.07 -371.64,84.34 -411.58,78.14l-5.39 -55.54c79.97,-70.91 347.91,-262.66 463.62,-285.22 75.66,-14.76 156.4,-0.68 179.56,59.66 31.4,-9.52 57.36,-25.26 90.93,-35.91 27.05,-8.6 76.88,-11.76 95.86,-27.1 -40.33,-14.77 -3.61,-76.71 -120.85,-158.74 -54.09,-37.85 -150.6,-51.09 -219.99,-20.24 -140.05,62.26 -367.15,348.21 -506.37,441.43 -44.2,-10.3 -92.02,-18.19 -149.24,-12.92 -27.82,2.56 -21.29,7.27 -45.5,12.92 -136.8,-152.41 -284.82,-308.79 -442.57,-440.14 -197.64,-164.56 -441.88,49.85 -381.89,264.98 38.19,137 159.12,194.18 289.26,217.02z"/>
   <path class="fil0" d="M4085.28 1443.57c229.59,4.53 501.15,13.64 541.5,-206.12 24.27,-132.23 -29.87,-216.11 -115.18,-259.42 -96.67,-49.06 -223.05,-40.51 -338.02,-40.51 -17.12,11.54 -7.16,-5.08 -14.83,26.42l-73.47 479.63z"/>
   <path class="fil0" d="M5519.35 2021.79l134.22 2.27c-5.46,-39.54 -20.01,-60.1 -64.64,-58.43 -42.34,1.58 -55.2,26.66 -69.58,56.16z"/>
   <path class="fil1" d="M209.3 1704.96c63.42,68.01 123.67,117.34 181.11,148.35 57.43,30.65 116.98,46.15 178.29,46.15 50.74,0 91.26,-12.33 121.56,-36.99 30.3,-25.02 45.46,-57.44 45.46,-97.96 0,-54.97 -60.96,-114.51 -183.23,-178.29 -11.98,-6.34 -21.14,-11.27 -27.84,-14.45 -119.44,-62.01 -200.84,-121.56 -244.88,-178.64 -44.05,-57.08 -66.24,-126.85 -66.24,-208.59 0,-149.4 50.38,-271.67 151.16,-366.81 100.77,-94.78 230.79,-142.35 389.7,-142.35 83.86,0 164.55,14.8 242.07,44.4 77.16,29.6 150.45,73.64 219.16,131.43l-173 297.74c-54.27,-46.51 -103.95,-81.04 -148.7,-103.59 -44.75,-22.56 -85.97,-33.83 -123.67,-33.83 -41.23,0 -75.76,11.98 -103.24,35.59 -27.49,23.61 -41.23,52.5 -41.23,87.03 0,42.63 51.44,90.2 154.68,143.06 36.3,18.67 64.49,33.82 84.57,45.45 106.06,58.49 179.7,118.04 220.93,179 41.22,60.95 62.01,137.06 62.01,228.67 0,161.73 -56.02,291.05 -168.43,387.59 -112.04,96.9 -264.61,145.17 -457.35,145.17 -101.13,0 -195.56,-21.49 -283.65,-64.48 -88.09,-42.98 -167.72,-107.11 -238.54,-191.68l209.3 -301.97zm1193.42 -522.19l365.04 0 -68.36 430.93c-8.1,57.09 -14.8,104.65 -19.73,143.06 -4.58,38.05 -7.05,63.07 -7.05,74.7 0,49.33 11.98,87.38 35.59,113.46 23.61,26.07 58.49,39.11 103.59,39.11 106.06,0 177.59,-119.8 214.94,-359.76 2.12,-13.03 3.88,-23.25 4.93,-29.95l65.19 -411.55 366.45 0 -74.35 471.1 -3.17 21.85c-36.29,223.74 -93.02,373.14 -170.19,448.19 -48.62,46.51 -108.52,81.75 -178.99,105.71 -70.47,23.61 -150.11,35.59 -238.9,35.59 -153.27,0 -274.13,-34.88 -362.57,-104.3 -88.44,-69.41 -132.49,-163.84 -132.49,-282.94 0,-27.48 2.47,-62.01 7.05,-103.59 4.93,-41.58 14.45,-105.71 28.89,-192.39l64.13 -399.22zm1144.8 1042.27l165.26 -1042.27 353.05 0 -25.72 177.24c32.07,-66.24 75.41,-116.28 130.02,-150.81 54.26,-34.53 117.69,-51.8 189.92,-51.8 7.4,0 16.21,0.36 25.72,1.41 9.52,1.06 24.67,3.53 45.46,7.05l-73.29 327.34c-23.96,-5.64 -45.81,-9.51 -65.19,-12.33 -19.03,-2.82 -37.7,-4.23 -55.67,-4.23 -70.82,0 -126.85,22.2 -167.72,66.59 -40.87,44.4 -69.06,113.11 -84.21,205.78l-74.35 476.03 -363.28 0z"/>
  </g>
 </g>
</svg>
