<svg xmlns="http://www.w3.org/2000/svg" width="48" height="48" viewBox="0 0 12.7 12.7" id="search-box"><path d="M4.499.53a.265.265 0 0 0-.104.02L-.632 2.667a.265.265 0 0 0-.16.28v5.785a.265.265 0 0 0 .16.244l5.027 2.117a.265.265 0 0 0 .003.001.265.265 0 0 0 .018.007.265.265 0 0 0 .006.002.265.265 0 0 0 .013.003.265.265 0 0 0 .018.004.265.265 0 0 0 .023.003.265.265 0 0 0 .003 0 .265.265 0 0 0 .012 0 .265.265 0 0 0 .01.001.265.265 0 0 0 .024-.002.265.265 0 0 0 .017-.002.265.265 0 0 0 .013-.002.265.265 0 0 0 .003 0 .265.265 0 0 0 .022-.007.265.265 0 0 0 .003-.001.265.265 0 0 0 .018-.007l3.31-1.393c.25.183.547.304.87.342l.52 1.585a.798.798 0 0 0 1.002.506.798.798 0 0 0 .506-1.002l-.527-1.599a1.85 1.85 0 0 0 .565-1.33c0-.735-.434-1.371-1.058-1.67v-3.62a.265.265 0 0 0-.162-.245L7.223 1.655a.265.265 0 0 0-.08-.034L4.6.55A.265.265 0 0 0 4.5.529Zm0 .55 1.898.8-4.345 1.83-1.896-.8Zm2.578 1.086 1.765.745L4.498 4.74l-1.764-.743ZM-.264 3.31l4.497 1.895v5.245L-.264 8.555Zm9.524 0v3.062a1.84 1.84 0 0 0-.263-.021c-1.02 0-1.852.832-1.852 1.851a.265.265 0 0 0 0 .005c0 .041.003.083.006.125V8.34a1.593 1.593 0 0 0-.006.127c0 .225.1.42.219.606.041.078.09.15.141.221L4.762 10.45V5.204ZM.56 6.668a.265.265 0 0 0-.025 0 .265.265 0 0 0-.077.51l.998.42a.265.265 0 1 0 .205-.489l-.998-.42a.265.265 0 0 0-.103-.021Zm8.434.211h.001c.137.001.273.026.404.069a1.317 1.317 0 0 1 .054 2.493c-.026.01-.053.017-.08.025a1.326 1.326 0 0 1-.375.058H8.99a.265.265 0 0 0-.03 0 1.32 1.32 0 0 1-1.28-1.182.265.265 0 0 0 0-.006v-.002a.265.265 0 0 0-.002-.023 1.358 1.358 0 0 1-.006-.11v-.002a1.348 1.348 0 0 1 .104-.514c.018-.043.044-.081.066-.122.02-.034.034-.07.056-.103a1.323 1.323 0 0 1 .357-.356c.07-.047.146-.088.225-.121.07-.03.145-.051.221-.068.01-.002.017-.007.026-.009h.002c.023-.005.047-.007.071-.011.064-.01.128-.015.195-.016zM.56 7.726a.265.265 0 0 0-.025.001.265.265 0 0 0-.077.51l.998.42a.265.265 0 1 0 .205-.489l-.998-.42a.265.265 0 0 0-.103-.022Zm9.273 2.127.474 1.442a.26.26 0 0 1-.17.334.258.258 0 0 1-.334-.168l-.472-1.438c.178-.033.346-.09.502-.17Z" color="#000" font-family="sans-serif" font-weight="400" overflow="visible" transform="translate(1.323)" style="line-height:normal;font-variant-ligatures:normal;font-variant-position:normal;font-variant-caps:normal;font-variant-numeric:normal;font-variant-alternates:normal;font-feature-settings:normal;text-indent:0;text-align:start;text-decoration-line:none;text-decoration-style:solid;text-decoration-color:#000;text-transform:none;text-orientation:mixed;shape-padding:0;isolation:auto;mix-blend-mode:normal"></path></svg>