<?xml version="1.0" encoding="utf-8"?>
<!-- Generator: Adobe Illustrator 27.5.0, SVG Export Plug-In . SVG Version: 6.00 Build 0)  -->
<svg version="1.1" xmlns="http://www.w3.org/2000/svg" xmlns:xlink="http://www.w3.org/1999/xlink" x="0px" y="0px"
	 viewBox="0 0 500 500" style="enable-background:new 0 0 500 500;" xml:space="preserve">
<g id="Floor">
	<path id="Floor_00000039092325155697866880000015942563800757382825_" style="fill:#F5F5F5;" d="M98.593,273.997
		c-83.617,48.277-83.615,126.548,0.005,174.825s219.191,48.276,302.809,0c83.617-48.277,83.615-126.548-0.004-174.825
		C317.783,225.721,182.21,225.721,98.593,273.997z"/>
</g>
<g id="Shadows">
	
		<ellipse id="Shadow_00000145055114008804330090000007474478494533414318_" style="fill:#E0E0E0;" cx="378.475" cy="406.518" rx="78.85" ry="45.524"/>
	<polygon id="Shadow_00000140732573993222471410000014817174116669830837_" style="fill:#E0E0E0;" points="38.489,383.463 
		171.499,306.671 304.511,383.463 171.501,460.26 	"/>
</g>
<g id="Plants">
	<g id="Plants_00000027563454014138784950000005345254389911473026_">
		<g id="XMLID_00000034803881338941336270000013123300176582432645_">
			<path style="fill:#BA68C8;" d="M422.074,369.738l14.894,8.599c-0.198-5.315-0.661-13.222,0.072-18.544
				c4.498-32.554,17.179-43.287,23.21-59.131c6.35-16.686-1.395-22.055-11.455-19.055c-8.971,2.676-21.953,15.952-26.042,40.244
				C420.035,338.014,420.517,355.566,422.074,369.738z"/>
			<path style="opacity:0.65;fill:#FFFFFF;" d="M422.074,369.738l14.894,8.599c-0.198-5.315-0.661-13.222,0.072-18.544
				c4.498-32.554,17.179-43.287,23.21-59.131c6.35-16.686-1.395-22.055-11.455-19.055c-8.971,2.676-21.953,15.952-26.042,40.244
				C420.035,338.014,420.517,355.566,422.074,369.738z"/>
			<g id="XMLID_00000128479542614581845590000015997465637940528531_">
				<path style="fill:#FFFFFF;" d="M429.969,374.296l1.491,0.86c-5.328-37.953,7.648-70.868,20.456-84.464
					c0.246-0.258,0.234-0.673-0.024-0.92c-0.271-0.247-0.68-0.234-0.926,0.024C438.164,303.398,425.195,336.535,429.969,374.296z"/>
			</g>
		</g>
		<g id="XMLID_00000011741300322225810350000004990265075017128339_">
			<path style="fill:#BA68C8;" d="M432.783,375.919l8.382,4.84h0.006c4.456-13.12,9.031-18.375,14.714-27.004
				c5.177-7.853,11.196-12.717,14.395-18.237c2.832-4.889,4.961-11.028,0.752-14.744c-6.698-5.917-15.441,0.343-21.454,7.107
				C444.382,333.733,433.931,349.294,432.783,375.919z"/>
			<path style="opacity:0.3;fill:#FFFFFF;" d="M432.783,375.919l8.382,4.84h0.006c4.456-13.12,9.031-18.375,14.714-27.004
				c5.177-7.853,11.196-12.717,14.395-18.237c2.832-4.889,4.961-11.028,0.752-14.744c-6.698-5.917-15.441,0.343-21.454,7.107
				C444.382,333.733,433.931,349.294,432.783,375.919z"/>
			<g id="XMLID_00000028304267337135014140000015541292477054518704_">
				<path style="fill:#FFFFFF;" d="M436.222,377.904l1.221,0.71c3.518-20.751,17.612-44.76,26.373-50.43
					c0.307-0.198,0.397-0.613,0.192-0.926c-0.198-0.313-0.607-0.403-0.92-0.198C454.021,332.939,439.956,356.835,436.222,377.904z"
					/>
			</g>
		</g>
	</g>
</g>
<g id="Gift_Box_00000183942470595868046930000018402384500108259515_">
	<g id="Gift_Box">
		<g id="Box_00000003788156951012814070000007745855873736634799_">
			<g>
				<g>
					<polygon style="fill:#BA68C8;" points="171.504,323.323 171.503,196.583 288.123,263.914 178.365,327.282 					"/>
					<polygon style="fill:#BA68C8;" points="171.503,323.323 171.503,196.583 54.884,263.914 164.643,327.282 					"/>
					<polygon style="opacity:0.1;" points="171.503,323.323 171.503,196.583 54.884,263.914 164.643,327.282 					"/>
					<polygon style="fill:#BA68C8;" points="171.504,331.244 164.644,327.283 171.504,323.323 178.363,327.283 					"/>
					<polygon style="opacity:0.45;" points="171.504,331.244 164.644,327.283 171.504,323.323 178.363,327.283 					"/>
				</g>
			</g>
			<path style="fill:#FAFAFA;" d="M82.34,257.911c1.087-0.042,2.245,0.002,3.479,0.137c4.583,0.502,8.998,2.633,12.181,5.977
				c0.815-3.204,3.434-5.799,6.536-6.943c3.096-1.141,5.711-1.208,8.843,0.236c-1.094-5.131,0.394-10.746,3.885-14.663
				c7.115-7.984,18.924-7.242,24.99,1.387c0.628-6.251,5.679-11.82,11.59-13.51c5.911-1.691,13.925-1.63,19.95,7.802
				c3.113-7.428,9.196-8.698,17.223-9.362c8.027-0.664,16.269,3.452,20.56,10.268c4.314-1.243,9.265,0.074,12.39,3.297
				c3.126,3.223,4.291,8.211,2.917,12.485c7.16-4.053,16.819-0.525,17.723,7.652c5.032-4.082,11.896-5.901,19.177-3.505
				c7.69,2.531,11.847,6.954,14.634,12.805c5.042,10.588,0.767,23.118-4.218,33.733c-2.637,5.615-5.484,11.163-9.096,16.206
				c-13.324,18.603-35.913,28.628-58.449,32.59c-35.349,6.215-72.879-0.887-103.512-19.589
				c-14.014-8.556-35.883-21.596-41.083-37.17C57.476,284.02,63.288,258.639,82.34,257.911z"/>
			<path style="fill:#E0E0E0;" d="M250.997,288.281c-9.114,6.68-21.875,8.008-32.169,3.348
				c-7.163,11.404-23.945,15.392-35.472,8.428c-3.241,4.552-9.003,7.179-14.565,6.64c-5.563-0.539-10.713-4.223-13.02-9.313
				c-6.463,2.267-14.263-3.788-13.669-10.611c-4.29,1.253-8.798,2.286-13.198,1.504c-4.399-0.782-8.676-3.797-9.671-8.154
				c-1.342-5.872,3.746-11.554,9.444-13.507c-6.165-2.506-10.602-8.794-10.896-15.442c-0.199-4.489,1.504-8.977,4.451-12.358
				c-1.794,0.913-3.485,2.175-4.966,3.837c-3.491,3.917-4.978,9.532-3.885,14.663c-3.132-1.444-5.748-1.376-8.843-0.236
				c-3.102,1.143-5.721,3.738-6.536,6.943c-3.183-3.344-7.598-5.475-12.181-5.977c-1.234-0.135-2.392-0.178-3.479-0.137
				c-19.052,0.728-24.864,26.109-20.281,39.834c5.2,15.574,27.069,28.614,41.083,37.17c30.634,18.702,68.163,25.804,103.512,19.589
				c8.234-1.448,16.47-3.715,24.263-6.904C247.309,332.719,256.899,309.49,250.997,288.281z"/>
			<g>
				<polygon style="fill:#BA68C8;" points="171.504,442.141 171.504,331.244 288.123,263.914 274.404,382.732 				"/>
				<polygon style="opacity:0.45;fill:#FFFFFF;" points="171.504,442.141 171.504,331.244 288.123,263.914 274.404,382.732 				"/>
				<polygon style="fill:#BA68C8;" points="242.587,290.204 222.277,301.84 220.4,413.911 237.771,403.882 				"/>
				<polygon style="opacity:0.15;" points="242.587,290.204 222.277,301.84 220.4,413.911 237.771,403.882 				"/>
			</g>
			<g>
				<polygon style="fill:#BA68C8;" points="171.504,442.141 171.504,331.244 54.885,263.914 68.605,382.732 				"/>
				<polygon style="opacity:0.3;fill:#FFFFFF;" points="171.504,442.141 171.504,331.244 54.885,263.914 68.605,382.732 				"/>
				<g>
					<polygon style="fill:#BA68C8;" points="100.421,290.204 120.731,301.84 122.608,413.911 105.237,403.882 					"/>
				</g>
				<polygon style="opacity:0.4;" points="100.421,290.204 120.731,301.84 122.608,413.911 105.237,403.882 				"/>
			</g>
		</g>
	</g>
</g>
<g id="Character">
	<g id="Character_00000001651787958181318940000009120711088334131376_">
		<g id="Bottom_00000057833141265529084120000001275718061912265379_">
			<g>
				<path style="fill:#FFA8A7;" d="M426.906,379.934c-1.655-14.58-0.53-20.747-2.633-43.529l0,0
					c-0.318-5.846-0.762-12.105-1.379-17.66c-2.076-18.687-5.436-24.995-5.851-28.601c0,0-0.458-22.464-3.19-63.408
					c-1.285-19.261-7.563-24.915-12.771-35l-61.279,1.87c-2.696,25.585-1.5,72.921-0.418,98.941
					c0.551,13.266,7.104,68.912,7.863,77.826c0.759,8.914-0.829,11.463-3.216,13.974c-4.999,5.259-10.505,9.817-16.835,14.463
					c1.017,2.25,8.81,1.929,12.61,0.076c6.071-2.959,12.046-7.374,14.101-8.87c5.203-3.786,11.91-6.901,11.809-12.418
					c-0.009-0.687,0.188-0.883,0.145-0.99c-0.009-3.223,6.79-45.936,7.094-56.975c0.261-9.491-1.543-25.53-1.543-25.53l4.777-32.787
					c0,0,3.833,16.93,8.535,33c3.826,13.08,8.667,29.989,13.022,46.098l0,0c4.287,18.579,9.77,29.723,11.016,39.051
					c-0.146,6.61,5.966,26.389,7.275,31.377c1.308,4.988,13.223,4.757,13.692-3.904
					C430.042,401.173,427.218,382.678,426.906,379.934z"/>
			</g>
			<g>
				<path style="fill:#263238;" d="M315.699,405.572c0,2.233-0.087,3.792,1.736,5.175c2.104,1.596,8.234,4.161,16.231,3.043
					c7.998-1.119,12.288-3.488,15.441-6.023c3.153-2.534,7.572-6.108,11.183-6.918c3.354-0.753,6.982-2.231,8.039-3.211
					c1.057-0.979-0.222-6.264-0.222-6.264L315.699,405.572z"/>
				<path id="XMLID_00000060751932251999457120000006451884977007709100_" style="fill:#37474F;" d="M365.977,375.046
					c0,0,0.605,0.005,0.835,0.986c0.273,1.168,0.617,4.573,1.19,6.487c0.796,2.66,1.412,9.165,1.02,11.355
					c-0.393,2.189-5.851,3.817-9.334,5.119c-3.557,1.329-7.646,4.001-11.224,6.835c-3.704,2.933-11.566,5.962-16.791,6.14
					c-7.976,0.272-13.188-1.61-14.843-4.212c-2.047-3.22-0.542-6.174,8.539-10.268c1.719-0.775,6.709-5.25,8.759-6.495
					c2.167-1.315,4.24-2.771,6.143-4.397c0.963-0.823,1.882-1.689,2.742-2.603c0.756-0.805,1.825-1.782,2.261-2.773
					c0.099-0.224,0.165-0.486,0.252-0.719c0.253-0.672,0.423-1.29,0.553-1.987c0.132-0.704,0.202-1.727,0.918-2.162
					c0.822-0.499,2.325-0.47,3.27-0.424c1.188,0.058,3.679,0.517,4.843,0.732c1.356,0.25,2.655,1.016,3.482,2.164
					c0.633,0.88,0.752,2.006,0.824,3.037c0.034,0.491,0.033,0.987,0.05,1.479c0.007,0.21-0.082,0.59,0.236,0.496
					c0.303-0.09,0.627-0.832,0.737-1.084c0.242-0.556,0.392-1.149,0.657-1.696c0.305-0.626,0.649-1.269,1.101-1.807
					c0.422-0.503,0.883-0.987,1.421-1.388c0.488-0.366,1.118-0.555,1.549-0.967C365.712,376.371,365.937,375.464,365.977,375.046z"
					/>
				<path style="fill:#FAFAFA;" d="M323.906,398.161c11.568,0.493,15.353,8.006,15.934,12.053c-2.841,0.991-5.778,1.672-8.167,1.753
					c-7.976,0.272-13.516-1.6-15.171-4.203C314.572,404.727,315.781,401.187,323.906,398.161z"/>
				<g>
					<g>
						<path style="fill:#F0F0F0;" d="M340.191,396.879c0.125-0.002,0.251-0.043,0.354-0.125c0.238-0.186,0.265-0.513,0.063-0.731
							c-1.649-1.777-6.34-4.076-10.529-3.569c-0.31,0.036-0.529,0.298-0.488,0.581c0.039,0.283,0.315,0.484,0.631,0.447
							c3.91-0.463,8.22,1.807,9.527,3.216C339.863,396.821,340.027,396.883,340.191,396.879z"/>
					</g>
					<g>
						<path style="fill:#F0F0F0;" d="M345.106,394.112c0.126-0.003,0.251-0.043,0.355-0.124c0.238-0.186,0.265-0.514,0.063-0.731
							c-1.65-1.778-6.344-4.083-10.529-3.569c-0.31,0.037-0.528,0.298-0.488,0.581c0.039,0.283,0.31,0.484,0.632,0.447
							c3.91-0.467,8.22,1.806,9.527,3.215C344.778,394.054,344.942,394.116,345.106,394.112z"/>
					</g>
					<g>
						<path style="fill:#F0F0F0;" d="M349.647,390.975c0.126-0.002,0.251-0.043,0.355-0.125c0.238-0.186,0.265-0.513,0.063-0.731
							c-1.649-1.778-6.36-4.078-10.529-3.568c-0.31,0.036-0.528,0.298-0.488,0.581c0.039,0.283,0.311,0.482,0.632,0.447
							c3.905-0.464,8.22,1.806,9.527,3.215C349.319,390.916,349.483,390.978,349.647,390.975z"/>
					</g>
					<g>
						<path style="fill:#F0F0F0;" d="M354.094,387.839c0.122-0.003,0.246-0.042,0.348-0.12c0.241-0.182,0.274-0.51,0.075-0.73
							c-2.27-2.522-7.308-4.11-11.491-3.602c-0.31,0.037-0.529,0.299-0.488,0.581c0.039,0.283,0.313,0.476,0.632,0.447
							c3.767-0.455,8.464,1,10.479,3.235C353.762,387.779,353.929,387.842,354.094,387.839z"/>
					</g>
				</g>
			</g>
			<g>
				<path style="fill:#263238;" d="M412.43,414.87c0.488,4.996,1.448,8.288,3.481,11.165c2.032,2.876,5.71,3.687,9.372,2.715
					c3.663-0.973,8.313-3.414,9.224-7.764c0.911-4.35,1.427-7.328,0.43-11.945L412.43,414.87z"/>
				<path id="XMLID_00000031206737389442247760000005283433985119237771_" style="fill:#37474F;" d="M426.714,378.15
					c1.525,0.064,2.204,6.771,3.31,13.473c1.186,7.184,3.632,10.096,4.674,15.984c1.19,6.727,0.077,9.783-2.36,13.947
					c-2.436,4.164-11.419,8.449-16.113,2.736c-3.826-4.659-3.974-10.129-4.487-16.867c-0.527-6.915-1.165-10.831-2.299-16.776
					c-0.95-4.982-1.98-10.579-0.677-11.182c0.127,0.74,0.258,1.68,0.391,2.406c0.164,0.894,0.199,1.836,0.583,2.682
					c0.168,0.371,0.521,0.755,0.638,0.139c0.079-0.418,0.02-0.845-0.044-1.259c-0.286-1.856,0.73-2.039,1.276-2.201
					c1.185-0.35,7.662-0.702,8.8-0.808c1.16-0.108,5.166-0.391,5.708,0.201c0.367,0.401,0.441,1.089,0.579,1.938
					c0.164,1.013,0.446,1.75,0.467,1.43c0.048-0.73-0.171-2.618-0.206-3.075c-0.034-0.438-0.132-1.033-0.154-1.473
					C426.78,379.014,426.761,378.581,426.714,378.15z"/>
				<path style="fill:#FAFAFA;" d="M435.254,411.51c0.406,4.187-0.587,7.094-2.494,10.353c-2.436,4.164-12.153,8.486-16.847,2.772
					c-2.336-2.843-3.053-6.266-3.48-9.769C414.972,410.274,430.874,407.8,435.254,411.51z"/>
				<g>
					<g>
						<path style="fill:#F0F0F0;" d="M415.501,407.419c0.063-0.008,0.125-0.025,0.185-0.054c0.061-0.028,7.009-2.918,13.91-1.67
							c0.305,0.05,0.602-0.129,0.664-0.41c0.06-0.281-0.139-0.554-0.445-0.609c-7.299-1.316-14.383,1.644-14.648,1.767
							c-0.277,0.133-0.385,0.446-0.242,0.7C415.037,407.343,415.272,407.447,415.501,407.419z"/>
					</g>
					<g>
						<path style="fill:#F0F0F0;" d="M429.084,400.67c0.212-0.026,0.4-0.163,0.467-0.363c0.089-0.275-0.078-0.565-0.375-0.648
							c-6.893-1.915-14.354,1.503-14.634,1.649c-0.272,0.141-0.368,0.457-0.213,0.706c0.154,0.248,0.502,0.33,0.768,0.195
							c0.063-0.032,7.335-3.346,13.749-1.557C428.924,400.675,429.005,400.679,429.084,400.67z"/>
					</g>
					<g>
						<path style="fill:#F0F0F0;" d="M428.681,395.928c0.208-0.026,0.393-0.159,0.462-0.355c0.096-0.275-0.066-0.566-0.362-0.653
							c-7.586-2.241-14.652,1.461-14.913,1.618c-0.262,0.157-0.336,0.479-0.165,0.718c0.17,0.24,0.526,0.308,0.781,0.151
							c0.058-0.036,6.888-3.582,13.948-1.499C428.516,395.933,428.6,395.938,428.681,395.928z"/>
					</g>
					<g>
						<path style="fill:#EBEBEB;" d="M428.149,391.265c0.205-0.025,0.389-0.155,0.46-0.348c0.1-0.272-0.057-0.566-0.352-0.657
							c-7.112-2.204-14.724,1.601-15.009,1.766c-0.265,0.149-0.347,0.47-0.183,0.714c0.162,0.244,0.51,0.323,0.776,0.166
							c0.066-0.037,7.448-3.712,14.052-1.664C427.978,391.268,428.065,391.276,428.149,391.265z"/>
					</g>
				</g>
			</g>
			<g>
				<g>
					<path style="fill:#37474F;" d="M405.831,182.705c7.21,11.716,13.338,25.275,14.103,61.136
						c0.728,34.105-0.022,38.963,0.263,43.068c0.285,4.105,1.34,11.916,4.318,32.092c2.977,20.177,1.376,39.294,1.376,39.294
						s-1.465,3.306-9.866,4.257c-7.749,0.877-13.405-2.039-13.405-2.039s-10.566-33.658-13.93-45.763
						c-3.364-12.105-12.221-45.278-12.221-45.278l-3.468,25.131c0,0,2.752,11.101,0.988,28.928
						c-1.764,17.827-4.943,30.835-4.943,30.835s-5.852,2.334-12.503,2.445c-6.652,0.111-12.33-2.842-12.33-2.842
						s-6.382-46.96-7.07-67.085c-0.688-20.125-3.431-78.098,3.4-104.178H405.831z"/>
				</g>
				<path style="fill:#FFA8A7;" d="M411.027,295.209c0,0-4.408-3.97-12.592-2.808c-8.183,1.162-11.377,5.706-11.377,5.706
					C395.733,294.193,411.027,295.209,411.027,295.209z M391.817,299.419c4.864,0.738,9.711,0.983,20.236-1.262
					C406.99,297.185,391.817,299.419,391.817,299.419z"/>
				<path style="fill:#FFA8A7;" d="M358.749,292.133c-3.083-1.511-14.413-3.265-21.458-2.183l0.145,2.18
					C337.436,292.129,348.036,290.978,358.749,292.133z M337.659,294.957l0.186,2.044c0,0,11.268-0.873,15.965-2.187
					C345.721,294.482,337.659,294.957,337.659,294.957z"/>
				<path style="fill:#263238;" d="M416.992,303.245c-0.316-1.159-0.615-2.26-0.893-3.313c-2.466-9.35-1.785-15.003-2.283-30.596
					c-0.151-4.712-0.307-9.584-0.533-14.758c-0.887-20.298-3.581-49.538-15.255-63.857l-0.88,0.607
					c7.847,9.627,11.69,29.727,13.484,43.761c-11.135-1.013-13.907-11.006-17.687-24.765c-0.517-1.88-4.247-16.45-4.823-18.446
					l-1.065,0.26c0.576,1.993,4.305,16.558,4.82,18.435c3.772,13.731,6.766,24.606,18.88,25.561
					c0.749,6.18,1.162,12.438,1.426,18.486c0.226,5.17,0.382,10.039,0.533,14.748c0.5,15.652-0.181,21.352,2.313,30.805
					c0.278,1.054,0.578,2.158,0.895,3.319c3.287,12.09,8.493,25.14,7.435,57.021c0.445-0.244,0.819-0.487,1.127-0.719
					C425.448,328.233,420.269,315.295,416.992,303.245z M348.561,216.8c1.775,6.65,10.366,10.105,15.686,11.108l1.147,4.294
					c-0.136,3.632-0.067,17.849-0.224,21.786c-0.869,21.698-1.265,36.59,0.113,41.603c3.628,13.198,2.978,21.657,1.797,37.013
					c-0.121,1.571-0.246,3.212-0.374,4.934c-0.66,8.919-1.682,12.649-2.195,18.26c0.401-0.094,0.782-0.188,1.13-0.279
					c0.513-5.625,1.517-9.178,2.162-17.913c0.128-1.723,0.254-3.362,0.374-4.932c1.188-15.461,1.844-23.977-1.828-37.333
					c-1.339-4.872-0.906-20.698-0.08-41.318c0.1-2.501-0.024-15.355,0.069-17.743l5.75,34.258l0.911,24.064l3.468-25.131
					l-8.432-45.772C368.036,223.7,356.966,224.374,348.561,216.8z"/>
			</g>
		</g>
		<g id="Top_00000026149141961739073190000004159098019282310838_">
			<g id="Arm_00000060710615052435245020000009857505305727872690_">
				<path style="fill:#FFA8A7;" d="M333.576,125.391c-9.281,3.943-20.873,8.657-20.873,8.657
					c-8.452-2.748-28.25-8.926-30.465-11.111c-2.215-2.185-4.866-4.314-6.954-5.907c-1.815-1.385-3.972-2.379-5.999-3.42
					c-2.138-1.097-4.308-2.131-6.44-3.24c-0.536-0.279-0.967,0.152-1.197,0.643c-0.426,0.911-0.29,2.012,0.156,2.914
					c0.446,0.902,1.17,1.635,1.929,2.295c0.679,0.591,1.396,1.138,2.146,1.636c0.782,0.52,2.659,1.734,1.7,2.815l0,0
					c-0.696,0.785-2.684,0.857-3.656,1.019c-5.405,0.902-12.756-1.417-15.684-2.205c-2.928-0.788-3.674,0.099-3.392,1.475
					c0.094,0.459,0.719,1.035,1.593,1.64c-1.607-0.513-3.031-0.698-3.869-0.026c-1.058,0.848,0.502,2.146,1.228,2.655
					c0.89,0.625,1.903,1.367,1.903,1.367c-0.493,0.301-0.487,1.289-0.431,1.628c0.06,0.36,0.35,0.81,0.596,1.079
					c1.642,1.793,4.275,2.784,6.11,3.432c-1.622-0.145-2.309-0.447-3.075-0.262c-0.537,0.13-0.924,0.478-0.942,1.03
					c-0.022,0.655,2.42,1.941,3.016,2.215c4.828,2.219,5.742,2.38,7.871,2.675c1.477,0.205,4.238,0.377,5.72,0.208
					c1.224-0.14,3.284-0.363,5.129-0.666c4.707-0.774,8.356,0.4,11.72,2.252c3.364,1.852,12.54,6.637,18.294,9.413
					c9.175,4.426,13.073,4.638,17.383,3.712c8.552-1.837,33.606-10.544,33.606-10.544l7.871-25.361
					C350.704,117.867,346.455,119.918,333.576,125.391z"/>
				<path style="fill:#F28F8F;" d="M251.978,132.737c1.318,0.739,2.835,1.042,4.327,1.184c1.504,0.083,3.005,0.017,4.475-0.294
					c-1.496-0.145-2.972-0.111-4.433-0.254C254.878,133.295,253.444,133.046,251.978,132.737z M260.911,125.686
					c0.022,0.001,0.032-0.05,0.011-0.051c-2.409-0.14-4.863-0.67-7.225-1.161c-2.264-0.471-4.505-1.11-6.736-1.71
					c-0.027-0.007-0.043,0.058-0.02,0.069c2.277,1.105,4.65,1.797,7.132,2.29C256.358,125.577,258.594,125.607,260.911,125.686z
					 M254.575,128.478c-0.907-0.189-1.809-0.405-2.707-0.633c-0.881-0.224-1.785-0.423-2.636-0.737
					c-0.263-0.097-0.526-0.194-0.789-0.291c-0.338-0.125-0.65-0.28-1.009-0.344c-0.367-0.066-0.745-0.065-1.111,0.006
					c-0.034,0.007-0.078,0.039-0.055,0.065c0.469-0.017,0.936,0.085,1.377,0.244c0.295,0.106,0.581,0.236,0.862,0.375
					c0.255,0.125,0.504,0.214,0.766,0.32c0.81,0.329,1.638,0.614,2.476,0.863c1.054,0.313,2.124,0.567,3.202,0.782
					c2.285,0.455,4.521,0.485,6.838,0.563c0.022,0.001,0.032-0.05,0.011-0.051C259.39,129.499,256.936,128.969,254.575,128.478z
					 M278.221,129.436c-0.089-0.274-0.204-0.54-0.358-0.784c-0.294-0.47-0.701-0.892-1.123-1.248
					c-0.843-0.711-1.873-1.223-2.945-1.481c-2.319-0.559-5.093,0.148-6.723,1.926c-0.046,0.05-0.055,0.282,0.059,0.229
					c2.066-0.958,4.169-1.808,6.489-1.261c1.919,0.452,3.426,1.966,4.428,3.611c0.094,0.154,0.258,0.059,0.251-0.1
					C278.286,130,278.324,129.757,278.221,129.436z"/>
				<path style="fill:#37474F;" d="M360.727,115.858c-7.745-0.351-10.969,1.78-20.58,6.065c-9.612,4.285-13.6,6.022-13.6,6.022
					s3.559,4.898,5.125,11.014c1.566,6.116,1.088,10.214,1.088,10.214l18.441-6.103L360.727,115.858z"/>
			</g>
			<g id="Chest_00000083076191764011712230000011728130364685304997_">
				<path style="fill:#FFA8A7;" d="M346.282,134.809c8.951-11.849,15.967-17.043,21.424-18.19l21.526,0.53l16.915,4.327
					c0,0,7,3.688,7.932,10.567c0.419,3.087-0.484,12.422-6.325,29.822c-3.352,9.985-8.158,14.502-8.196,22.795
					c-8.852,17.331-54.498,14.772-52.226-2.603c0,0-3.593-10.634-2.848-20.661C338.044,152.449,341.309,141.394,346.282,134.809z"/>
				<g id="Head_00000133529623291769261510000001266890313974912403_">
					<path style="fill:#263238;" d="M373.677,113.423c-1.166,0.161-2.347,0.215-3.525,0.214c-2.862-0.003-5.787-0.348-8.362-1.597
						c-2.576-1.249-4.769-3.515-5.391-6.309c-0.123,2.025,0.403,4.084,1.482,5.802c-2.599-0.68-4.907-2.303-6.321-4.567
						c-1.561-2.5-3.065-4.718-3.626-7.694c-1.043-5.538,0.854-11.489,4.722-15.587c0.993-1.052,2.122-2.007,2.938-3.213
						c0.322-0.476,0.853-1.237,0.884-1.83c0.032-0.605-3.797-4.077-2.984-11.009c0.888-7.574,7.067-11.77,15.537-10.846
						c10.055-5.594,28.691-3.694,35.785,8.448c1.599,2.738,2.696,5.94,3.003,9.105c0.219,2.262,0.519,4.217,1.587,6.268
						c1.077,2.069,2.477,3.948,3.606,5.988c2.95,5.333,3.868,11.938,1.685,17.628c-2.183,5.69-7.72,10.159-13.812,10.323
						c1.289-2.333,1.757-5.109,1.304-7.736c-0.378,2.2-1.157,4.42-2.743,5.991c-1.522,1.508-3.643,2.271-5.757,2.617
						c-3.082,0.504-6.292,0.201-9.224-0.872c-1.59-0.581-3.118-1.514-4.74-1.978c-1.498-0.428-3.166,0.272-4.641,0.601
						C374.618,113.275,374.149,113.358,373.677,113.423z"/>
					<path style="fill:#FFA8A7;" d="M404.663,85.47c-0.94-1.257-2.703-2.549-5.492-1.618c-1.782,0.595-2.552,2.127-3.647,3.491
						c-0.873,1.087-2.68,1.581-3.749,0.459c-0.733-0.769-0.82-1.943-0.734-3.002c0.097-1.191,0.361-2.368,0.78-3.487
						c-1.723-0.876-3.108-2.377-3.905-4.138c-0.797-1.761-1.013-3.769-0.676-5.673c0.038-0.216,0.082-0.447-0.004-0.649
						c-0.05-0.118-0.14-0.214-0.231-0.304c-2.467-2.451-7.13-3.102-10.176-1.455c-1.142,0.617-2.583,0.289-3.327-0.774
						c-1.887-2.695-5.523-2.836-7.516-1.371c-3.012,2.214-4.114,4.115-6.715,16.661c-2.519,12.149-1.157,18.514,2.716,22.44
						c1.97,1.997,5.076,3.466,9.939,3.937c0,0-0.101,2.501-0.189,4.156c-0.088,1.654-1.156,2.488-3.169,2.497
						c-3.463,4.143-9.093,8.053,2.505,12.159c11.599,4.105,22.89-4.244,26.863-9.423c-3.711-1.162-4.778-3.301-4.369-7.73
						c0.41-4.429,1.212-15.116,1.212-15.116s0.286,1.627,2.416,2.222c1.595,0.446,3.82-0.259,5.515-1.943
						C406.475,93.072,406.542,87.983,404.663,85.47z"/>
					<g>
						<g id="XMLID_307_">
							<polygon id="XMLID_00000156555935755271233160000011301760739608658622_" style="fill:#F28F8F;" points="375.656,79.467 
								372.104,93.123 365.387,88.637 							"/>
						</g>
						<path id="XMLID_00000033366248931052025410000018169781746201085853_" style="fill:#263238;" d="M362.539,78.342l4.726-1.415
							c-0.345-1.33-1.682-2.092-2.987-1.701C362.973,75.617,362.195,77.012,362.539,78.342z"/>
						<path id="XMLID_00000036234380584697914700000004317504883262550945_" style="fill:#263238;" d="M380.803,78.539l3.928,2.983
							c0.872-1.062,0.698-2.591-0.387-3.415C383.259,77.284,381.674,77.477,380.803,78.539z"/>
						<path id="XMLID_00000113336136476660679250000013530066258956756884_" style="fill:#B16668;" d="M377.696,94.569l-7.739,1.949
							c0.461,2.175,2.787,3.491,5.217,2.783C377.289,98.686,378.158,96.743,377.696,94.569z"/>
						<path style="fill:#F28F8F;" d="M372.973,99.385c0.379-2.096,2.271-3.614,4.441-3.444c0.132,0.01,0.254,0.047,0.383,0.069
							c-0.111,1.55-0.992,2.816-2.623,3.291C374.409,99.524,373.663,99.527,372.973,99.385z"/>
						<g id="XMLID_00000165919232388646100970000007825682194976529582_">
							<path id="XMLID_00000150067236992177768710000008407210912991652272_" style="fill:#263238;" d="M377.911,84.405
								c-0.347,1.15,1.06,0.048,2.273,0.498c1.213,0.451,1.773,2.284,2.12,1.135c0.347-1.15-0.356-2.447-1.568-2.898
								C379.522,82.688,378.258,83.255,377.911,84.405z"/>
						</g>
						<g id="XMLID_00000023278024519439253440000016297324464626996411_">
							<path id="XMLID_00000048499495592715939690000010559122340094935424_" style="fill:#263238;" d="M362.798,82.853
								c0.034,1.201,1.021-0.289,2.314-0.245c1.293,0.045,2.403,1.608,2.369,0.408c-0.034-1.201-1.11-2.21-2.403-2.255
								C363.786,80.715,362.765,81.652,362.798,82.853z"/>
						</g>
						<g id="XMLID_00000119811425018322344140000010341875460666876824_">
							<path id="XMLID_00000143610785339335271730000001585035135031875751_" style="fill:#F28F8F;" d="M371.925,109.988
								c4.537-0.06,8.724-0.691,13.216-2.716c4.177-1.883,6.198-5.046,7.439-8.218c0,0-0.409,6.59-6.064,10.184
								c-5.272,3.35-14.723,3.673-14.723,3.673L371.925,109.988z"/>
						</g>
					</g>
				</g>
				<path style="fill:#F28F8F;" d="M369.771,133.368c-5.81,2.646-17.379,14.931-10.618,29.631
					c-4.256-4.905-4.897-14.458-2.618-19.667C359.187,137.271,365.96,134.102,369.771,133.368z"/>
				<g id="Dress_00000152225457623401295830000001402286124443577776_">
					<g>
						<g>
							<path style="fill:#FAFAFA;" d="M375.098,207.222c-24.298,0-34.662-9.005-36.817-12.751l4.143-19.676l0.489-12.439
								l-0.305-0.218c-0.028-0.021-3.081-2.286-4.846-8.033c-2.357-7.683,2-17.114,12.95-28.033
								c5.601-5.585,9.339-8.751,10.24-9.499l6.131,0.467c-3.063,2.828-10.6,10.429-9.067,15.476
								c0.722,2.376,3.254,3.829,7.527,4.316c0.901,0.103,1.821,0.155,2.736,0.155c15.49,0,27.965-14.438,30.049-16.992
								c1.628,0.433,4.58,1.218,5.936,1.586c-0.602,1.794-2.145,6.658-2.71,10.911c-1.1,8.27,0.716,14.201,2.636,18.912
								c1.643,4.031,4.226,7.627,4.974,8.627c-0.512,2.112-3.247,13.538-3.869,19.059c-0.18,1.588,1.179,4.169,2.897,7.436
								c1.617,3.073,3.443,6.542,4.273,9.749c-5.831,6.983-18.393,10.766-36.366,10.943L375.098,207.222z"/>
							<g>
								<path style="fill:#E0E0E0;" d="M361.181,117.285l4.277,0.326c-3.594,3.485-9.59,10.216-8.106,15.105
									c0.809,2.666,3.539,4.283,8.113,4.804c0.927,0.106,1.874,0.159,2.815,0.159c15.192,0,27.492-13.551,30.3-16.901
									c1.627,0.432,3.533,0.94,4.796,1.28c-0.706,2.182-2,6.502-2.51,10.34c-1.12,8.43,0.727,14.469,2.681,19.266
									c1.549,3.802,3.919,7.222,4.866,8.517c-0.664,2.757-3.208,13.502-3.809,18.829c-0.203,1.8,1.129,4.332,2.974,7.836
									c1.541,2.928,3.273,6.22,4.123,9.254c-5.796,6.648-18.081,10.248-35.608,10.421c-0.334,0.003-0.667,0.005-0.996,0.005
									c-23.525,0-33.736-8.43-36.083-12.18l4.076-19.354l0.024-0.115l0.004-0.117l0.472-12.006l0.021-0.742l-0.593-0.437
									c-0.029-0.021-2.909-2.191-4.593-7.678c-2.277-7.417,2.022-16.615,12.776-27.338
									C356.415,121.365,360.006,118.272,361.181,117.285 M360.727,115.858c0,0-3.963,3.198-10.505,9.721
									c-7.64,7.617-16.226,18.617-13.122,28.728c1.866,6.08,5.105,8.395,5.105,8.395l-0.472,12.006l-4.185,19.87
									c1.83,3.521,11.856,13.337,37.55,13.337c0.334,0,0.671-0.002,1.009-0.005c19.548-0.193,31.575-4.554,37.117-11.467
									c-1.587-6.654-7.555-14.478-7.24-17.278c0.676-5.992,3.932-19.293,3.932-19.293s-3.202-4.115-5.083-8.732
									c-1.937-4.754-3.663-10.488-2.591-18.559c0.692-5.205,2.918-11.474,2.918-11.474c-0.482-0.148-7.09-1.901-7.09-1.901
									s-13.307,17.084-29.79,17.084c-0.877,0-1.764-0.048-2.658-0.15c-17.686-2.018,3.141-19.67,3.141-19.67L360.727,115.858
									L360.727,115.858z"/>
							</g>
						</g>
						<path style="opacity:0.2;" d="M360.635,163.361c4.259,3.316,9.982,5.221,15.68,4.394c2.714-0.394,5.538-1.364,7.844-2.83
							c1.912-1.216,3.281-2.915,4.93-4.431c0.093-0.086,0.165,0.152,0.138,0.213c-1.11,2.566-3.126,4.822-5.399,6.376
							c-2.34,1.601-5.063,2.335-7.887,2.682c-2.788,0.343-5.682,0.071-8.336-0.859c-1.404-0.491-5.123-2.392-7.054-5.313
							C360.512,163.531,360.514,163.267,360.635,163.361z"/>
					</g>
				</g>
			</g>
			<g>
				<path style="fill:#FFA8A7;" d="M359.495,198.668c7.428-2.4,21.385-7.003,27.734-9.417c7.3-2.775,11.472-4.344,15.302-11.584
					c1.995-3.771,3.862-8.035,8.808-20.039c4.911-11.922,6.965-17.411,6.572-22.079c-0.36-4.273-3.224-11.599-12.597-13.895
					c-5.136,4.173-11.175,19.608-11.175,19.608l-11.572,27.423c-5.654,3.129-16.34,8.455-20.253,10.205
					c-3.912,1.75-10.048,5.032-15.038,4.35c-1.476-0.202-2.899-0.656-4.738-1.093c-1.495-0.355-2.735-0.45-4.316-0.524
					c-3.348-0.157-6.615,0.896-9.872,1.582c-0.202,0.043-0.408,0.087-0.584,0.196c-0.382,0.239-0.526,0.751-0.432,1.192
					c0.094,0.44,0.383,0.815,0.708,1.126c1.207,1.151,3.223,1.2,4.795,1.364c1.73,0.18,3.534,0.331,5.066,1.234
					c0.122,0.072,0.254,0.168,0.268,0.309c0.017,0.191-0.187,0.32-0.362,0.398c-4.754,2.109-10.152,2.307-15.321,1.734
					c-1.161-0.129-2.331-0.295-3.493-0.176c-1.014,0.104-2.282,0.574-3.01,1.305c-0.376,0.378-0.496,0.801-0.486,1.352
					c0.016,0.882,0.628,1.103,1.427,1.348c-0.785,0.075-1.579,0.152-2.319,0.424c-0.74,0.272-1.431,0.766-1.771,1.477
					c-0.341,0.711-0.252,1.653,0.334,2.179c0.353,0.317,0.83,0.452,1.293,0.559c0.326,0.075,0.654,0.142,0.983,0.199
					c0.323,0.056,0.648,0.104,0.973,0.143c0.54,0.064,1.054,0.135,1.516,0.445c0.451,0.303,0.487,0.938,0.692,1.412
					c0.297,0.688,0.901,1.209,1.575,1.538c0.673,0.329,1.416,0.487,2.154,0.612c3.109,0.529,6.283,0.556,9.433,0.418
					c0.484-0.021,0.972-0.046,1.449,0.034c0.099,0.017,0.218,0.057,0.237,0.156c0.023,0.116-0.106,0.198-0.215,0.243
					c-1.945,0.803-4.038,1.195-6.133,1.298c-0.979,0.052-1.971,0.037-2.925,0.262c-0.954,0.225-1.893,0.73-2.386,1.579
					c-0.074,0.128-0.139,0.271-0.128,0.419c0.08,0.993,3.314,1.283,3.989,1.417c3.95,0.784,7.968-0.541,11.82-1.595
					c4.253-1.165,7.229-4.078,11.381-5.53C353.122,200.789,353.393,200.639,359.495,198.668z"/>
				<path style="fill:#37474F;" d="M405.161,121.108c4.259,0.936,8.877,4.19,11.046,6.93c2.983,3.768,4.497,9.356,0.435,19.149
					c-4.851,11.695-7.087,16.639-7.087,16.639s-4.448,0.969-11.587-2.045c-7.139-3.014-9.392-9.675-9.392-9.675
					s6.389-14.816,8.475-19.379C399.137,128.164,402.49,122.632,405.161,121.108z"/>
				<path style="fill:#F28F8F;" d="M337.518,194.433c-1.56,0.27-3.1,0.616-4.671,0.843c-1.476,0.213-2.969,0.32-4.46,0.348
					c-1.588,0.03-3.176-0.031-4.755-0.127c-1.684-0.103-3.348-0.326-5.039-0.354c-0.044-0.001-0.03,0.066,0.003,0.074
					c1.544,0.369,3.135,0.564,4.732,0.751c1.551,0.182,3.12,0.286,4.694,0.255c3.176-0.063,6.569-0.601,9.525-1.643
					C337.608,194.558,337.59,194.421,337.518,194.433z M337.034,199.117c-1.56,0.271-3.1,0.617-4.671,0.845
					c-1.476,0.214-2.969,0.32-4.46,0.348c-1.588,0.029-3.176-0.031-4.755-0.129c-1.684-0.104-3.348-0.328-5.039-0.357
					c-0.044-0.001-0.03,0.066,0.003,0.074c1.545,0.371,3.135,0.567,4.733,0.755c1.551,0.183,3.12,0.288,4.694,0.257
					c3.176-0.062,6.569-0.601,9.524-1.646C337.124,199.242,337.106,199.105,337.034,199.117z"/>
			</g>
		</g>
	</g>
</g>
<g id="Lid">
	<g id="Gift_7_">
		<g id="XMLID_00000139987301573193763990000013878061834560624827_">
			<g>
				<g id="XMLID_00000019644125832940895280000000958479706425141934_">
					<polygon style="fill:#BA68C8;" points="168.344,201.638 161.665,236.768 55.567,145.319 53.336,143.392 60.001,108.262 					
						"/>
					<polygon style="opacity:0.3;fill:#FFFFFF;" points="168.344,201.638 161.665,236.768 55.567,145.319 53.336,143.392 
						60.001,108.262 					"/>
				</g>
				<polygon style="fill:#BA68C8;" points="303.392,154.506 296.712,189.637 161.665,236.768 168.344,201.638 				"/>
				<polygon style="opacity:0.45;fill:#FFFFFF;" points="303.392,154.506 296.712,189.637 161.665,236.768 168.344,201.638 				"/>
				<g id="XMLID_1165_">
					<polygon id="XMLID_1169_" style="fill:#BA68C8;" points="303.39,154.5 195.049,61.12 60.006,108.256 168.348,201.639 					"/>
				</g>
				<g id="XMLID_00000012447314913968804540000017860218124402354618_" style="opacity:0.6;">
					<polygon id="XMLID_00000037682369926037658160000017033646845462841019_" style="fill:#FFFFFF;" points="303.39,154.5 
						195.049,61.12 60.006,108.256 168.348,201.639 					"/>
				</g>
			</g>
			<g>
				<polygon style="fill:#BA68C8;" points="216.518,217.625 238.455,209.968 245.13,174.84 223.192,182.496 				"/>
				<polygon style="opacity:0.15;" points="216.518,217.625 238.455,209.968 245.13,174.84 223.192,182.496 				"/>
				<polygon style="fill:#BA68C8;" points="100.071,183.679 117.672,198.849 124.347,163.719 106.746,148.549 				"/>
				<polygon style="opacity:0.4;" points="100.071,183.679 117.672,198.849 124.347,163.719 106.746,148.549 				"/>
				<g>
					<polygon style="fill:#BA68C8;" points="245.13,174.837 136.786,81.456 114.848,89.114 223.192,182.495 					"/>
					<polygon style="opacity:0.25;" points="180.633,145.814 202.571,138.156 184.969,122.985 163.032,130.643 					"/>
					<polygon style="fill:#BA68C8;" points="124.348,163.714 259.389,116.575 241.788,101.405 106.747,148.544 					"/>
				</g>
			</g>
		</g>
		<g>
			<polygon style="fill:#BA68C8;" points="179.413,144.214 178.415,198.125 174.736,272.935 198.454,253.72 199.906,190.623 
				185.083,136.986 			"/>
			<polygon style="fill:#BA68C8;" points="185.022,140.628 261.401,160.156 278.66,145.23 186.494,133.211 			"/>
			<g>
				<g>
					<path style="fill:#BA68C8;" d="M112.133,85.229c0,0,0.606,21.29,22.263,34.378c21.657,13.087,48.509,20.957,48.509,20.957
						l-39.122-75.522L112.133,85.229z"/>
					<path style="opacity:0.4;" d="M112.133,85.229c0,0,0.606,21.29,22.263,34.378c21.657,13.087,48.509,20.957,48.509,20.957
						l-39.122-75.522L112.133,85.229z"/>
					<path style="fill:#BA68C8;" d="M182.905,140.564c0,0,5.024-19.8-1.907-37.157c-6.931-17.357-37.215-38.365-37.215-38.365
						c-11.826,5.451-22.182,12.374-31.65,20.186c0,0,44.347,9.523,66.452,53.641L182.905,140.564z"/>
					<path style="opacity:0.3;fill:#FFFFFF;" d="M138.779,96.543c6.762,4.014,14.051,9.322,21.01,16.294l19.799-12.407
						c-3.994-7.517-11.63-15.418-18.846-21.858L138.779,96.543z"/>
				</g>
				<g>
					<path style="fill:#BA68C8;" d="M182.905,140.564c0,0-8.73,11.383-26.476,15.581c-17.746,4.199-44.44-2.187-44.44-2.187
						l4.974-34.315c0,0,5.2,16.696,24.835,21.405c19.797,4.748,35.475-4.764,35.475-4.764L182.905,140.564z"/>
					<path style="opacity:0.4;" d="M182.905,140.564c0,0-8.73,11.383-26.476,15.581c-17.746,4.199-44.44-2.187-44.44-2.187
						l4.974-34.315c0,0,5.2,16.696,24.835,21.405c19.797,4.748,35.475-4.764,35.475-4.764L182.905,140.564z"/>
					<path style="fill:#BA68C8;" d="M182.905,140.564c-12.944-20.829-28.259-25.981-43.315-25.829
						c-16.653,0.168-22.627,4.908-22.627,4.908l-4.974,34.315c0,0,12.162-14.591,36.624-16.903
						C173.075,134.743,182.905,140.564,182.905,140.564z"/>
					<path style="opacity:0.3;fill:#FFFFFF;" d="M125.975,116.188c2.646,6.464,6.797,16.984,9.412,23.642
						c3.949-1.254,8.269-2.306,13.228-2.774c4.893-0.463,9.046-0.539,12.807-0.462l-10.639-20.831
						c-3.719-0.771-7.463-1.065-11.191-1.027C133.803,114.793,129.38,115.416,125.975,116.188z"/>
				</g>
				<g>
					<path style="fill:#BA68C8;" d="M182.808,136.596c0,0,24.291,1.882,44.519-11.956c20.229-13.838,29.158-37.475,29.158-37.475
						l-25.537-25.22c0,0,3.908,23.819-15.525,44.671c-14.594,15.66-30.067,16.087-30.067,16.087L182.808,136.596z"/>
					<path style="opacity:0.4;" d="M182.808,136.596c0,0,24.291,1.882,44.519-11.956c20.229-13.838,29.158-37.475,29.158-37.475
						l-25.537-25.22c0,0,3.908,23.819-15.525,44.671c-14.594,15.66-30.067,16.087-30.067,16.087L182.808,136.596z"/>
					<path style="fill:#BA68C8;" d="M182.808,136.596l4.548,0.068c0,0,8.126-24.934,33.181-39.349
						c26.048-14.987,35.948-10.15,35.948-10.15c-6.744-10.66-15.82-18.347-25.537-25.22c0,0-20.786,6.643-32.315,20.055
						C184.813,98.077,181.988,125.778,182.808,136.596z"/>
					<path style="opacity:0.3;fill:#FFFFFF;" d="M201.256,79.228c-0.074,0.072-0.153,0.138-0.226,0.21
						c-0.833,0.823-1.636,1.676-2.396,2.561c-0.448,0.52-0.788,1.143-1.212,1.687l17.431,17.28c1.793-1.271,3.679-2.498,5.685-3.652
						c3.582-2.061,6.829-3.716,9.817-5.091l-21.082-19.481C206.476,74.655,203.734,76.812,201.256,79.228z M217.867,67.62
						c-1.411,0.734-2.841,1.504-4.323,2.384l21.129,20.363c1.715-0.684,3.319-1.262,4.811-1.738L217.867,67.62z"/>
				</g>
				<g>
					<path style="fill:#BA68C8;" d="M182.784,140.492c0,0,5.921,9.31,22.93,17.165c17.009,7.856,40.1,9.461,51.858,0.594
						l4.019-31.969c0,0-18.874,17.372-41.377,16.659c-17.138-0.543-35.777-10.923-35.777-10.923L182.784,140.492z"/>
					<path style="opacity:0.4;" d="M182.784,140.492c0,0,5.921,9.31,22.93,17.165c17.009,7.856,40.1,9.461,51.858,0.594
						l4.019-31.969c0,0-18.874,17.372-41.377,16.659c-17.138-0.543-35.777-10.923-35.777-10.923L182.784,140.492z"/>
					<path style="fill:#BA68C8;" d="M183.042,133.024c0,0,20.771-14.788,39.962-14.073c26.01,0.969,38.588,7.332,38.588,7.332
						c2.3,12.243,0.817,22.837-4.019,31.969c0,0-8.68-13.823-34.094-19.634c-20.09-4.595-40.694,1.875-40.694,1.875L183.042,133.024
						z"/>
					<path style="opacity:0.3;fill:#FFFFFF;" d="M253.01,153.206c-3.331-3.025-8.618-6.935-16.406-10.27l0.924-22.723
						c8.501,1.127,14.736,2.751,18.741,4.024C257.328,133.692,255.533,146.094,253.01,153.206z"/>
				</g>
			</g>
		</g>
		<polygon style="fill:#BA68C8;" points="199.906,190.623 178.415,198.125 174.736,272.935 198.454,253.72 		"/>
		<polygon style="opacity:0.15;" points="199.906,190.623 178.415,198.125 174.736,272.935 198.454,253.72 		"/>
	</g>
</g>
<g id="Stars_00000173867828918008471090000009306707624885174708_">
	<g id="Stars">
		<g>
			<g>
				<path style="fill:#E0E0E0;" d="M30.031,213.388c5.181,0.909,10.331,1.602,15.415,3.011c4.92,1.364,9.757,3.098,14.422,5.171
					c9.568,4.253,18.423,9.973,26.45,16.676c4.376,3.654,8.537,7.676,12.476,11.792c0.411,0.43,0.76-0.187,0.5-0.578
					c-5.951-8.945-14.376-16.018-23.339-21.833c-8.552-5.549-18.071-10.058-27.932-12.71c-3.063-0.824-6.146-1.513-9.277-2.025
					c-2.954-0.483-6.017-0.935-9.014-0.742C29.049,212.195,29.576,213.308,30.031,213.388L30.031,213.388z"/>
			</g>
		</g>
		<g>
			<g>
				<path style="fill:#E0E0E0;" d="M58.793,176.763c8.806,5.335,17.101,11.47,24.21,18.953c7.026,7.396,12.905,15.766,17.76,24.725
					c2.891,5.335,5.123,10.93,7.658,16.429c0.216,0.469,0.885,0.519,0.758-0.131c-0.982-5.035-3.055-9.945-5.23-14.57
					c-2.23-4.743-4.839-9.294-7.751-13.651c-5.874-8.786-13.083-16.684-21.367-23.255c-4.807-3.812-10.163-7.258-15.867-9.556
					C58.233,175.413,58.333,176.484,58.793,176.763L58.793,176.763z"/>
			</g>
		</g>
		<path style="fill:#E0E0E0;" d="M17.747,215.585l0.548-3.945l-2.94-2.688c-0.316-0.289-0.163-0.815,0.258-0.89l3.922-0.698
			l1.648-3.627c0.177-0.39,0.724-0.407,0.926-0.03l1.876,3.514l3.958,0.447c0.426,0.048,0.611,0.563,0.314,0.872l-2.763,2.87
			l0.798,3.903c0.086,0.42-0.347,0.755-0.732,0.568l-3.583-1.74l-3.465,1.965C18.141,216.316,17.688,216.009,17.747,215.585z"/>
		<path style="fill:#E0E0E0;" d="M40.872,178.474l0.795-5.722l-4.263-3.899c-0.458-0.419-0.237-1.182,0.374-1.291l5.688-1.012
			l2.39-5.259c0.257-0.565,1.051-0.591,1.343-0.043l2.72,5.096l5.74,0.648c0.617,0.07,0.886,0.817,0.456,1.264l-4.006,4.162
			l1.157,5.66c0.124,0.608-0.503,1.095-1.061,0.824l-5.196-2.524l-5.025,2.85C41.444,179.535,40.787,179.089,40.872,178.474z"/>
		<path style="fill:#E0E0E0;" d="M24.032,220.533c0.579-0.579,1.517-0.579,2.096,0c0.579,0.579,0.579,1.517,0,2.096
			c-0.579,0.579-1.517,0.579-2.096,0C23.454,222.051,23.454,221.112,24.032,220.533z"/>
		<g>
			<g>
				<path style="fill:#E0E0E0;" d="M289.508,226.52c-4.725,0.313-9.497,2.067-13.874,3.778c-4.493,1.756-8.811,3.948-12.947,6.429
					c-8.322,4.992-16.027,11.255-22.445,18.548c-3.549,4.033-6.9,8.285-9.019,13.253c-0.14,0.328,0.287,0.96,0.604,0.581
					c3.077-3.687,5.86-7.607,9.049-11.202c3.136-3.536,6.481-6.884,10.074-9.955c7.114-6.081,15.012-11.128,23.548-14.968
					c2.667-1.2,5.404-2.251,8.184-3.158c2.422-0.79,4.957-1.303,7.333-2.216C290.563,227.398,289.942,226.491,289.508,226.52
					L289.508,226.52z"/>
			</g>
		</g>
		<path style="fill:#E0E0E0;" d="M304.441,233.431l0.228-4.904l4.169-2.592c0.448-0.279,0.382-0.95-0.112-1.137l-4.594-1.732
			l-1.177-4.767c-0.126-0.512-0.786-0.657-1.115-0.245l-3.067,3.834l-4.897-0.354c-0.526-0.038-0.868,0.544-0.578,0.985l2.698,4.102
			l-1.849,4.548c-0.199,0.489,0.249,0.993,0.758,0.854l4.735-1.299l3.754,3.164C303.798,234.229,304.417,233.959,304.441,233.431z"
			/>
		<path style="fill:#E0E0E0;" d="M313.894,231.656c-0.793-0.694-2-0.614-2.694,0.179c-0.694,0.794-0.614,2,0.179,2.694
			c0.793,0.694,2,0.614,2.694-0.179C314.767,233.557,314.687,232.35,313.894,231.656z"/>
		<path style="fill:#BA68C8;" d="M66.57,241.361c-0.1-0.973-0.375-1.911-0.816-2.659c-1.282-2.172-3.828-3.299-6.292-3.261
			c-2.703,0.042-5.186,1.651-6.821,3.723c-0.321,0.406-0.639,0.862-0.93,1.347c-0.785-0.136-1.605-0.111-2.398,0.115
			c-1.515,0.432-2.812,1.452-3.55,2.849c-0.755,1.43-0.786,3.022-0.506,4.579c0.048,0.265,0.405,0.366,0.363,0.029
			c-0.252-2.022,0.632-4.352,2.231-5.63c0.967-0.772,2.204-1.167,3.389-1.079c-0.867,1.788-1.212,3.839,0.076,5.477
			c0.798,1.015,2.308,1.59,3.502,0.91c1.053-0.6,1.36-1.984,1.182-3.101c-0.285-1.78-1.507-3.124-3.048-3.784
			c2.029-3.319,6.32-5.78,10.002-3.438c1.315,0.836,2.053,2.14,2.281,3.59c-2.22-0.258-5.032,0.725-5.248,3.24
			c-0.224,2.621,3.177,3.344,4.903,2.002c1.09-0.848,1.619-2.24,1.712-3.687c1.698,0.936,2.659,2.931,2.644,4.909
			c-0.001,0.178,0.337,0.536,0.446,0.246C70.702,245.069,69.082,242.343,66.57,241.361z M54.854,245.103
			c0.018,0.989-0.59,2.326-1.792,1.799c-1.019-0.447-1.384-1.754-1.315-2.772c0.058-0.86,0.359-1.683,0.753-2.451
			c0.418,0.179,0.817,0.423,1.167,0.769C54.372,243.142,54.837,244.107,54.854,245.103z M65.278,242.746
			c-0.107,0.997-0.447,2.082-1.271,2.721c-0.591,0.458-1.522,0.609-2.176,0.189c-1.024-0.657-0.509-2.002,0.184-2.688
			c0.83-0.821,2.037-1.061,3.165-0.888c0.046,0.007,0.085,0.026,0.131,0.035C65.307,242.324,65.301,242.534,65.278,242.746z"/>
		<path style="opacity:0.5;fill:#FFFFFF;" d="M66.57,241.361c-0.1-0.973-0.375-1.911-0.816-2.659
			c-1.282-2.172-3.828-3.299-6.292-3.261c-2.703,0.042-5.186,1.651-6.821,3.723c-0.321,0.406-0.639,0.862-0.93,1.347
			c-0.785-0.136-1.605-0.111-2.398,0.115c-1.515,0.432-2.812,1.452-3.55,2.849c-0.755,1.43-0.786,3.022-0.506,4.579
			c0.048,0.265,0.405,0.366,0.363,0.029c-0.252-2.022,0.632-4.352,2.231-5.63c0.967-0.772,2.204-1.167,3.389-1.079
			c-0.867,1.788-1.212,3.839,0.076,5.477c0.798,1.015,2.308,1.59,3.502,0.91c1.053-0.6,1.36-1.984,1.182-3.101
			c-0.285-1.78-1.507-3.124-3.048-3.784c2.029-3.319,6.32-5.78,10.002-3.438c1.315,0.836,2.053,2.14,2.281,3.59
			c-2.22-0.258-5.032,0.725-5.248,3.24c-0.224,2.621,3.177,3.344,4.903,2.002c1.09-0.848,1.619-2.24,1.712-3.687
			c1.698,0.936,2.659,2.931,2.644,4.909c-0.001,0.178,0.337,0.536,0.446,0.246C70.702,245.069,69.082,242.343,66.57,241.361z
			 M54.854,245.103c0.018,0.989-0.59,2.326-1.792,1.799c-1.019-0.447-1.384-1.754-1.315-2.772c0.058-0.86,0.359-1.683,0.753-2.451
			c0.418,0.179,0.817,0.423,1.167,0.769C54.372,243.142,54.837,244.107,54.854,245.103z M65.278,242.746
			c-0.107,0.997-0.447,2.082-1.271,2.721c-0.591,0.458-1.522,0.609-2.176,0.189c-1.024-0.657-0.509-2.002,0.184-2.688
			c0.83-0.821,2.037-1.061,3.165-0.888c0.046,0.007,0.085,0.026,0.131,0.035C65.307,242.324,65.301,242.534,65.278,242.746z"/>
		<path style="fill:#BA68C8;" d="M255.72,232.652c0.304,0.125,0.271-0.397,0.132-0.525c-1.546-1.421-2.399-3.612-1.896-5.609
			c1.191,0.976,2.655,1.573,4.103,1.341c2.293-0.368,4.195-3.532,1.997-5.257c-2.109-1.654-4.909-0.183-6.317,1.728
			c-0.961-1.227-1.438-2.745-1.135-4.371c0.849-4.554,5.868-6.104,9.914-5.275c-0.604,1.675-0.446,3.598,0.73,5.108
			c0.738,0.947,2.035,1.711,3.264,1.329c1.392-0.434,2.04-2.023,1.83-3.378c-0.339-2.187-2.182-3.405-4.198-4.027
			c0.79-0.984,1.993-1.659,3.293-1.85c2.15-0.316,4.6,0.685,5.987,2.345c0.232,0.277,0.412-0.074,0.241-0.302
			c-1.007-1.346-2.265-2.475-3.923-2.924c-1.619-0.439-3.35-0.17-4.783,0.693c-0.75,0.452-1.364,1.07-1.826,1.778
			c-0.588-0.125-1.172-0.208-1.719-0.254c-2.793-0.232-5.84,0.532-7.831,2.6c-1.815,1.885-2.784,4.679-2.026,7.247
			c0.261,0.884,0.791,1.777,1.473,2.559C251.971,228.268,252.914,231.5,255.72,232.652z M263.217,216.375
			c-0.015-0.523,0.085-1.009,0.248-1.463c0.881,0.25,1.738,0.613,2.448,1.191c0.84,0.684,1.591,1.914,1.2,3.029
			c-0.461,1.314-1.94,0.818-2.695,0.088C263.659,218.485,263.246,217.425,263.217,216.375z M254.526,225.174
			c0.026-0.041,0.04-0.086,0.068-0.127c0.683-1.001,1.743-1.764,2.982-1.814c1.034-0.042,2.452,0.533,2.22,1.804
			c-0.148,0.813-0.939,1.426-1.723,1.553c-1.093,0.177-2.182-0.345-3.033-0.984C254.858,225.471,254.691,225.323,254.526,225.174z"
			/>
		<path style="opacity:0.5;fill:#FFFFFF;" d="M255.72,232.652c0.304,0.125,0.271-0.397,0.132-0.525
			c-1.546-1.421-2.399-3.612-1.896-5.609c1.191,0.976,2.655,1.573,4.103,1.341c2.293-0.368,4.195-3.532,1.997-5.257
			c-2.109-1.654-4.909-0.183-6.317,1.728c-0.961-1.227-1.438-2.745-1.135-4.371c0.849-4.554,5.868-6.104,9.914-5.275
			c-0.604,1.675-0.446,3.598,0.73,5.108c0.738,0.947,2.035,1.711,3.264,1.329c1.392-0.434,2.04-2.023,1.83-3.378
			c-0.339-2.187-2.182-3.405-4.198-4.027c0.79-0.984,1.993-1.659,3.293-1.85c2.15-0.316,4.6,0.685,5.987,2.345
			c0.232,0.277,0.412-0.074,0.241-0.302c-1.007-1.346-2.265-2.475-3.923-2.924c-1.619-0.439-3.35-0.17-4.783,0.693
			c-0.75,0.452-1.364,1.07-1.826,1.778c-0.588-0.125-1.172-0.208-1.719-0.254c-2.793-0.232-5.84,0.532-7.831,2.6
			c-1.815,1.885-2.784,4.679-2.026,7.247c0.261,0.884,0.791,1.777,1.473,2.559C251.971,228.268,252.914,231.5,255.72,232.652z
			 M263.217,216.375c-0.015-0.523,0.085-1.009,0.248-1.463c0.881,0.25,1.738,0.613,2.448,1.191c0.84,0.684,1.591,1.914,1.2,3.029
			c-0.461,1.314-1.94,0.818-2.695,0.088C263.659,218.485,263.246,217.425,263.217,216.375z M254.526,225.174
			c0.026-0.041,0.04-0.086,0.068-0.127c0.683-1.001,1.743-1.764,2.982-1.814c1.034-0.042,2.452,0.533,2.22,1.804
			c-0.148,0.813-0.939,1.426-1.723,1.553c-1.093,0.177-2.182-0.345-3.033-0.984C254.858,225.471,254.691,225.323,254.526,225.174z"
			/>
		<g>
			<path style="fill:#BA68C8;" d="M89.905,221.086c0.797-0.567,1.478-1.269,1.911-2.021c1.257-2.186,0.983-4.957-0.266-7.081
				c-1.37-2.331-3.994-3.698-6.602-4.098c-0.512-0.078-1.065-0.131-1.631-0.145c-0.269-0.75-0.695-1.451-1.283-2.029
				c-1.123-1.105-2.65-1.73-4.229-1.683c-1.616,0.048-3.016,0.806-4.234,1.818c-0.207,0.172-0.119,0.533,0.154,0.33
				c1.634-1.216,4.097-1.597,5.997-0.836c1.149,0.46,2.103,1.342,2.61,2.417c-1.983,0.127-3.937,0.839-4.727,2.768
				c-0.49,1.195-0.245,2.792,0.935,3.495c1.041,0.62,2.397,0.204,3.28-0.501c1.408-1.125,1.975-2.852,1.788-4.518
				c3.888,0.128,8.145,2.648,7.924,7.005c-0.079,1.556-0.849,2.841-1.998,3.755c-0.871-2.058-3.113-4.02-5.407-2.967
				c-2.391,1.098-1.343,4.413,0.677,5.253c1.275,0.53,2.747,0.304,4.051-0.329c0.023,1.939-1.238,3.758-2.966,4.721
				c-0.156,0.087-0.3,0.558,0.006,0.51C88.717,226.509,90.289,223.755,89.905,221.086z M80.872,212.739
				c-0.851,0.503-2.314,0.633-2.449-0.672c-0.114-1.107,0.844-2.069,1.763-2.511c0.777-0.373,1.642-0.518,2.504-0.554
				c0.05,0.452,0.035,0.919-0.093,1.395C82.34,211.352,81.73,212.233,80.872,212.739z M88.063,220.645
				c-0.92,0.398-2.032,0.638-2.994,0.236c-0.69-0.288-1.28-1.023-1.238-1.8c0.067-1.215,1.491-1.43,2.429-1.165
				c1.124,0.317,1.928,1.249,2.334,2.315c0.016,0.044,0.019,0.087,0.034,0.131C88.444,220.462,88.258,220.56,88.063,220.645z"/>
			<path style="opacity:0.5;fill:#FFFFFF;" d="M89.905,221.086c0.797-0.567,1.478-1.269,1.911-2.021
				c1.257-2.186,0.983-4.957-0.266-7.081c-1.37-2.331-3.994-3.698-6.602-4.098c-0.512-0.078-1.065-0.131-1.631-0.145
				c-0.269-0.75-0.695-1.451-1.283-2.029c-1.123-1.105-2.65-1.73-4.229-1.683c-1.616,0.048-3.016,0.806-4.234,1.818
				c-0.207,0.172-0.119,0.533,0.154,0.33c1.634-1.216,4.097-1.597,5.997-0.836c1.149,0.46,2.103,1.342,2.61,2.417
				c-1.983,0.127-3.937,0.839-4.727,2.768c-0.49,1.195-0.245,2.792,0.935,3.495c1.041,0.62,2.397,0.204,3.28-0.501
				c1.408-1.125,1.975-2.852,1.788-4.518c3.888,0.128,8.145,2.648,7.924,7.005c-0.079,1.556-0.849,2.841-1.998,3.755
				c-0.871-2.058-3.113-4.02-5.407-2.967c-2.391,1.098-1.343,4.413,0.677,5.253c1.275,0.53,2.747,0.304,4.051-0.329
				c0.023,1.939-1.238,3.758-2.966,4.721c-0.156,0.087-0.3,0.558,0.006,0.51C88.717,226.509,90.289,223.755,89.905,221.086z
				 M80.872,212.739c-0.851,0.503-2.314,0.633-2.449-0.672c-0.114-1.107,0.844-2.069,1.763-2.511
				c0.777-0.373,1.642-0.518,2.504-0.554c0.05,0.452,0.035,0.919-0.093,1.395C82.34,211.352,81.73,212.233,80.872,212.739z
				 M88.063,220.645c-0.92,0.398-2.032,0.638-2.994,0.236c-0.69-0.288-1.28-1.023-1.238-1.8c0.067-1.215,1.491-1.43,2.429-1.165
				c1.124,0.317,1.928,1.249,2.334,2.315c0.016,0.044,0.019,0.087,0.034,0.131C88.444,220.462,88.258,220.56,88.063,220.645z"/>
		</g>
	</g>
</g>
<g id="Exclamation">
	<g id="Exclamation_1_">
		<g>
			<path style="fill:#BA68C8;" d="M324.377,91.202l2.639-2.392c0.479-0.434,0.578-1.154,0.221-1.608L314.461,70.95
				c-0.357-0.454-1.034-0.471-1.513-0.037l-4.996,4.526c-0.479,0.434-0.549,1.091-0.156,1.467l15.004,14.399
				C323.192,91.682,323.898,91.635,324.377,91.202z"/>
			<path style="fill:#BA68C8;" d="M332.401,97.403c1.681-1.523,1.442-3.819,0.253-5.132c-1.525-1.684-3.819-1.442-5.132-0.253
				c-1.683,1.525-1.442,3.819-0.253,5.132C328.793,98.832,331.087,98.594,332.401,97.403z"/>
		</g>
		<g>
			<g>
				<path style="fill:#BA68C8;" d="M332.665,75.192l2.337-1.138c0.424-0.206,0.64-0.691,0.482-1.082l-5.642-13.995
					c-0.158-0.391-0.629-0.54-1.053-0.334l-4.424,2.154c-0.424,0.206-0.607,0.653-0.409,0.997l7.581,13.15
					C331.737,75.288,332.241,75.399,332.665,75.192z"/>
				<path style="fill:#BA68C8;" d="M337.025,81.174c1.489-0.725,1.789-2.383,1.223-3.545c-0.726-1.491-2.383-1.789-3.545-1.223
					c-1.491,0.726-1.789,2.383-1.223,3.545C334.205,81.44,335.861,81.741,337.025,81.174z"/>
			</g>
			<g style="opacity:0.3;">
				<path style="fill:#FFFFFF;" d="M332.665,75.192l2.337-1.138c0.424-0.206,0.64-0.691,0.482-1.082l-5.642-13.995
					c-0.158-0.391-0.629-0.54-1.053-0.334l-4.424,2.154c-0.424,0.206-0.607,0.653-0.409,0.997l7.581,13.15
					C331.737,75.288,332.241,75.399,332.665,75.192z"/>
				<path style="fill:#FFFFFF;" d="M337.025,81.174c1.489-0.725,1.789-2.383,1.223-3.545c-0.726-1.491-2.383-1.789-3.545-1.223
					c-1.491,0.726-1.789,2.383-1.223,3.545C334.205,81.44,335.861,81.741,337.025,81.174z"/>
			</g>
		</g>
	</g>
</g>
</svg>
